# xmcd
#
# Track frame offsets:
#	150
#	22065
#	45403
#	64188
#	86474
#	104227
#	124028
#	144954
#	159915
#	182681
#	203634
#	226275
#	246054
#	265954
#	288336
#	305824
#	321702
#	337979
#
# Disc length: 4792 seconds
#
# Revision: 0
# Processed by: cddbd v1.5.1PL2 Copyright (c) Steve Scherf et al.
# Submitted via: dBpowerAMP V4.0
#
DISCID=0512b612
DTITLE=Mariah Carey - Best Of
DYEAR=1900
DGENRE=
TTITLE0=Though The Rain
TTITLE1=Boy
TTITLE2=The One
TTITLE3=Lulaby
TTITLE4=I Still Believe
TTITLE5=Hero
TTITLE6=Butterfly
TTITLE7=Against All Odds
TTITLE8=Honey
TTITLE9=I'll Be There
TTITLE10=When You Believe
TTITLE11=Never Too Far
TTITLE12=Emotion
TTITLE13=Can Let Go
TTITLE14=My All
TTITLE15=Vision Of Love
TTITLE16=Without You
TTITLE17=Sweet Day
EXTD=
EXTT0=
EXTT1=
EXTT2=
EXTT3=
EXTT4=
EXTT5=
EXTT6=
EXTT7=
EXTT8=
EXTT9=
EXTT10=
EXTT11=
EXTT12=
EXTT13=
EXTT14=
EXTT15=
EXTT16=
EXTT17=
PLAYORDER=
